<mxfile host="Electron" agent="Mozilla/5.0 (Windows NT 10.0; Win64; x64) AppleWebKit/537.36 (KHTML, like Gecko) draw.io/28.0.6 Chrome/138.0.7204.100 Electron/37.2.3 Safari/537.36" version="28.0.6">
  <diagram name="Page-1" id="itf2L6Ag0WxdENKP6BMH">
    <mxGraphModel dx="692" dy="467" grid="0" gridSize="7" guides="1" tooltips="1" connect="0" arrows="1" fold="1" page="1" pageScale="1" pageWidth="1100" pageHeight="850" background="none" math="0" shadow="1">
      <root>
        <mxCell id="0" />
        <mxCell id="1" parent="0" />
        <mxCell id="Eb9ZEoW7x-J-M6lColXm-32" value="" style="whiteSpace=wrap;html=1;aspect=fixed;shadow=0;fillColor=#76608a;strokeColor=#432D57;fontColor=#ffffff;movable=0;resizable=0;rotatable=0;deletable=0;editable=0;locked=1;connectable=0;" vertex="1" parent="1">
          <mxGeometry x="256.05" y="21" width="91" height="91" as="geometry" />
        </mxCell>
        <mxCell id="Eb9ZEoW7x-J-M6lColXm-44" value="" style="edgeStyle=orthogonalEdgeStyle;rounded=0;orthogonalLoop=1;jettySize=auto;html=1;" edge="1" parent="1" source="Eb9ZEoW7x-J-M6lColXm-31" target="Eb9ZEoW7x-J-M6lColXm-30">
          <mxGeometry relative="1" as="geometry" />
        </mxCell>
        <mxCell id="Eb9ZEoW7x-J-M6lColXm-31" value="&lt;span style=&quot;text-wrap-mode: nowrap;&quot;&gt;Ingestion layer&lt;/span&gt;&lt;div style=&quot;text-wrap-mode: nowrap;&quot;&gt;(Batch + Streaming)&lt;/div&gt;" style="rounded=0;whiteSpace=wrap;html=1;fillColor=#6a00ff;strokeColor=#3700CC;fontColor=#ffffff;" vertex="1" parent="1">
          <mxGeometry x="249" y="196" width="115" height="56" as="geometry" />
        </mxCell>
        <mxCell id="Eb9ZEoW7x-J-M6lColXm-1" value="" style="dashed=0;outlineConnect=0;html=1;align=center;labelPosition=center;verticalLabelPosition=bottom;verticalAlign=top;shape=mxgraph.weblogos.sms;fillColor=#48B921;strokeColor=none" vertex="1" parent="1">
          <mxGeometry x="256.05" y="27" width="47.6" height="29" as="geometry" />
        </mxCell>
        <mxCell id="Eb9ZEoW7x-J-M6lColXm-2" value="" style="shape=mxgraph.networks2.icon;aspect=fixed;fillColor=#EDEDED;strokeColor=#000000;gradientColor=#5B6163;network2IconShadow=1;network2bgFillColor=none;network2Icon=mxgraph.networks2.social_media;network2IconYOffset=0.0153;network2IconW=1.02;network2IconH=0.932;" vertex="1" parent="1">
          <mxGeometry x="264.52" y="70" width="30.65" height="28" as="geometry" />
        </mxCell>
        <mxCell id="Eb9ZEoW7x-J-M6lColXm-3" value="" style="sketch=0;html=1;aspect=fixed;strokeColor=none;shadow=0;fillColor=#3B8DF1;verticalAlign=top;labelPosition=center;verticalLabelPosition=bottom;shape=mxgraph.gcp2.files;movable=1;resizable=1;rotatable=1;deletable=1;editable=1;locked=0;connectable=1;" vertex="1" parent="1">
          <mxGeometry x="315" y="28" width="27.84" height="27" as="geometry" />
        </mxCell>
        <mxCell id="Eb9ZEoW7x-J-M6lColXm-22" value="" style="image;aspect=fixed;perimeter=ellipsePerimeter;html=1;align=center;shadow=0;dashed=0;spacingTop=3;image=img/lib/active_directory/server_farm.svg;movable=1;resizable=1;rotatable=1;deletable=1;editable=1;locked=0;connectable=1;" vertex="1" parent="1">
          <mxGeometry x="314.84000000000003" y="65.5" width="28" height="28" as="geometry" />
        </mxCell>
        <mxCell id="Eb9ZEoW7x-J-M6lColXm-45" value="" style="edgeStyle=orthogonalEdgeStyle;rounded=0;orthogonalLoop=1;jettySize=auto;html=1;" edge="1" parent="1" source="Eb9ZEoW7x-J-M6lColXm-30" target="Eb9ZEoW7x-J-M6lColXm-35">
          <mxGeometry relative="1" as="geometry" />
        </mxCell>
        <mxCell id="Eb9ZEoW7x-J-M6lColXm-30" value="Data Cleaning &amp;amp; Standardization" style="rounded=0;whiteSpace=wrap;html=1;fillColor=#6a00ff;fontColor=#ffffff;strokeColor=#3700CC;" vertex="1" parent="1">
          <mxGeometry x="420" y="196" width="112" height="56" as="geometry" />
        </mxCell>
        <mxCell id="Eb9ZEoW7x-J-M6lColXm-53" style="edgeStyle=orthogonalEdgeStyle;rounded=0;orthogonalLoop=1;jettySize=auto;html=1;" edge="1" parent="1" source="Eb9ZEoW7x-J-M6lColXm-35" target="Eb9ZEoW7x-J-M6lColXm-38">
          <mxGeometry relative="1" as="geometry" />
        </mxCell>
        <mxCell id="Eb9ZEoW7x-J-M6lColXm-35" value="Data Enrichment &amp;amp; Complaint Categorization" style="rounded=0;whiteSpace=wrap;html=1;fillColor=#6a00ff;fontColor=#ffffff;strokeColor=#3700CC;" vertex="1" parent="1">
          <mxGeometry x="420" y="308" width="112" height="56" as="geometry" />
        </mxCell>
        <mxCell id="Eb9ZEoW7x-J-M6lColXm-42" value="" style="edgeStyle=orthogonalEdgeStyle;rounded=0;orthogonalLoop=1;jettySize=auto;html=1;" edge="1" parent="1" source="Eb9ZEoW7x-J-M6lColXm-37" target="Eb9ZEoW7x-J-M6lColXm-31">
          <mxGeometry relative="1" as="geometry">
            <Array as="points">
              <mxPoint x="305" y="161" />
              <mxPoint x="305" y="161" />
            </Array>
          </mxGeometry>
        </mxCell>
        <mxCell id="Eb9ZEoW7x-J-M6lColXm-37" value="Data Sources" style="rounded=0;whiteSpace=wrap;html=1;fillColor=#0050ef;strokeColor=#001DBC;fontColor=#ffffff;" vertex="1" parent="1">
          <mxGeometry x="249" y="112" width="108" height="32" as="geometry" />
        </mxCell>
        <mxCell id="Eb9ZEoW7x-J-M6lColXm-38" value="Data Storage&amp;nbsp;&lt;div&gt;(Raw + Clean)&lt;/div&gt;" style="rounded=0;whiteSpace=wrap;html=1;fillColor=#6a00ff;fontColor=#ffffff;strokeColor=#3700CC;" vertex="1" parent="1">
          <mxGeometry x="420.5" y="420" width="111.5" height="56" as="geometry" />
        </mxCell>
        <mxCell id="Eb9ZEoW7x-J-M6lColXm-39" value="Orchestration &amp;amp; Monitoring" style="rounded=0;whiteSpace=wrap;html=1;fillColor=#e3c800;strokeColor=#B09500;fontColor=#000000;" vertex="1" parent="1">
          <mxGeometry x="616" y="420" width="112" height="56" as="geometry" />
        </mxCell>
        <mxCell id="Eb9ZEoW7x-J-M6lColXm-50" style="edgeStyle=orthogonalEdgeStyle;rounded=0;orthogonalLoop=1;jettySize=auto;html=1;entryX=-0.012;entryY=0.494;entryDx=0;entryDy=0;entryPerimeter=0;" edge="1" parent="1" source="Eb9ZEoW7x-J-M6lColXm-38" target="Eb9ZEoW7x-J-M6lColXm-39">
          <mxGeometry relative="1" as="geometry" />
        </mxCell>
        <mxCell id="Eb9ZEoW7x-J-M6lColXm-59" value="" style="edgeStyle=orthogonalEdgeStyle;rounded=0;orthogonalLoop=1;jettySize=auto;html=1;" edge="1" parent="1" source="Eb9ZEoW7x-J-M6lColXm-35" target="Eb9ZEoW7x-J-M6lColXm-36">
          <mxGeometry relative="1" as="geometry">
            <mxPoint x="777" y="336" as="targetPoint" />
            <mxPoint x="532" y="336" as="sourcePoint" />
          </mxGeometry>
        </mxCell>
        <mxCell id="Eb9ZEoW7x-J-M6lColXm-36" value="Data Serving &amp;amp; Analytics Access" style="rounded=0;whiteSpace=wrap;html=1;fillColor=#6a00ff;fontColor=#ffffff;strokeColor=#3700CC;" vertex="1" parent="1">
          <mxGeometry x="616" y="308" width="112" height="56" as="geometry" />
        </mxCell>
        <mxCell id="Eb9ZEoW7x-J-M6lColXm-61" style="rounded=0;orthogonalLoop=1;jettySize=auto;html=1;entryX=0.006;entryY=1.03;entryDx=0;entryDy=0;entryPerimeter=0;" edge="1" parent="1" target="Eb9ZEoW7x-J-M6lColXm-36">
          <mxGeometry relative="1" as="geometry">
            <mxPoint x="532" y="448" as="sourcePoint" />
          </mxGeometry>
        </mxCell>
        <mxCell id="Eb9ZEoW7x-J-M6lColXm-62" value="Data ops&lt;div&gt;(On prems, Cloud or Hybrid)&lt;/div&gt;" style="rounded=0;whiteSpace=wrap;html=1;fillColor=#d80073;strokeColor=#A50040;fontColor=#ffffff;" vertex="1" parent="1">
          <mxGeometry x="812" y="420" width="113" height="56" as="geometry" />
        </mxCell>
        <mxCell id="Eb9ZEoW7x-J-M6lColXm-65" style="edgeStyle=orthogonalEdgeStyle;rounded=0;orthogonalLoop=1;jettySize=auto;html=1;entryX=-0.024;entryY=0.482;entryDx=0;entryDy=0;entryPerimeter=0;" edge="1" parent="1" source="Eb9ZEoW7x-J-M6lColXm-39" target="Eb9ZEoW7x-J-M6lColXm-62">
          <mxGeometry relative="1" as="geometry">
            <Array as="points">
              <mxPoint x="805" y="448" />
              <mxPoint x="805" y="447" />
            </Array>
          </mxGeometry>
        </mxCell>
        <mxCell id="Eb9ZEoW7x-J-M6lColXm-67" style="edgeStyle=orthogonalEdgeStyle;rounded=0;orthogonalLoop=1;jettySize=auto;html=1;entryX=0.506;entryY=1.077;entryDx=0;entryDy=0;entryPerimeter=0;" edge="1" parent="1" source="Eb9ZEoW7x-J-M6lColXm-39" target="Eb9ZEoW7x-J-M6lColXm-36">
          <mxGeometry relative="1" as="geometry" />
        </mxCell>
        <mxCell id="Eb9ZEoW7x-J-M6lColXm-68" style="rounded=0;orthogonalLoop=1;jettySize=auto;html=1;" edge="1" parent="1">
          <mxGeometry relative="1" as="geometry">
            <mxPoint x="872" y="416" as="sourcePoint" />
            <mxPoint x="729" y="329" as="targetPoint" />
          </mxGeometry>
        </mxCell>
      </root>
    </mxGraphModel>
  </diagram>
</mxfile>
